# xmcd
# Track frame offsets:
# 150
# 12837
# 24288
# 34761
# 46110
# 57168
# 68622
# 81295
# 91584
# 105358
# 118054
# 131914
# 144645
# 153615
# 167841
#
# Disc length: 2409 seconds
# Revision: 0
# Processed by: cddbd v1.5.2PL0 Copyright (c) Steve Scherf et al.
# Submitted via: VisiTrax 2.10.3.257 - For more info visit www.synapsa.com
#
DISCID=b909670f
DTITLE=Ray Charles - Ray Charles-The Best Of Ray Charles [CD 3)
DYEAR=2006
DGENRE=Blues
TTITLE0=You'll Never Miss The Water (Until The Well's Gone Dry)
TTITLE1=What Have I Done
TTITLE2=I Wonder Who's Kissing Her Now
TTITLE3=Back Home (Instrumental)
TTITLE4=I'll Do Anything But Work
TTITLE5=Guitar Blues (Instrumental)
TTITLE6=Blues Before Sunrise
TTITLE7=Ain't That Fine?
TTITLE8=Misery In My Heart
TTITLE9=Why Did You Go?
TTITLE10=Late In The Evening Blues
TTITLE11=Lonely Boy
TTITLE12=All To Myself
TTITLE13=Walkin' And Talkin'
TTITLE14=Don't Put All Your Dreams In One Basket
EXTD=
EXTT0=
EXTT1=
EXTT2=
EXTT3=
EXTT4=
EXTT5=
EXTT6=
EXTT7=
EXTT8=
EXTT9=
EXTT10=
EXTT11=
EXTT12=
EXTT13=
EXTT14=
PLAYORDER=
